<svg width="21" height="29" viewBox="0 0 21 29" fill="none" xmlns="http://www.w3.org/2000/svg">
<path d="M20.9999 17.8401C20.9999 23.9401 15.9499 28.8451 9.84988 28.4811C3.58088 28.1071 -0.710116 22.0781 0.0978841 15.7761C0.586884 11.9431 2.38388 8.65606 4.33988 6.10606C4.67988 5.66106 5.02888 9.24206 5.37788 8.84806C5.72788 8.44306 8.97188 2.82906 10.0999 0.857061C10.1484 0.77008 10.2151 0.69456 10.2953 0.635629C10.3756 0.576699 10.4677 0.535739 10.5652 0.515533C10.6627 0.495326 10.7634 0.496346 10.8605 0.518524C10.9576 0.540701 11.0488 0.583516 11.1279 0.644061C13.3939 2.35406 20.9999 8.77706 20.9999 17.8401Z" fill="#AF2EFF"/>
<path d="M17.9999 20.3511C17.9999 24.3931 14.4809 27.6421 10.2009 27.4951C5.58087 27.3391 2.41286 23.1111 3.09086 18.7561C4.06986 12.5121 10.4799 8.50012 10.4799 8.50012C10.4799 8.50012 17.9999 13.2071 17.9999 20.3511Z" fill="#C596FF"/>
</svg>
